<?xml version="1.0" encoding="UTF-8" standalone="no" ?>
<!DOCTYPE svg PUBLIC "-//W3C//DTD SVG 1.1//EN" "http://www.w3.org/Graphics/SVG/1.1/DTD/svg11.dtd">
<svg xmlns="http://www.w3.org/2000/svg" xmlns:xlink="http://www.w3.org/1999/xlink" version="1.1" width="16" height="16" viewBox="0 0 16 16" xml:space="preserve">
<desc>Created with Fabric.js 5.3.0</desc>
<defs>
</defs>
<g transform="matrix(2.265 0 0 2.265 8 13.1470010809)" id="2N8zTXoTGDywCtmuOwFDo"  >
<path style="stroke: rgb(45,16,113); stroke-width: 0; stroke-dasharray: none; stroke-linecap: butt; stroke-dashoffset: 0; stroke-linejoin: miter; stroke-miterlimit: 4; fill: rgb(255,163,0); fill-rule: nonzero; opacity: 1;" vector-effect="non-scaling-stroke"  transform=" translate(0, 0)" d="M 0 -0.87336 C 0.4821 -0.87336 0.87336 -0.48209 0.87336 0 C 0.87336 0.4821 0.48209 0.87336 0 0.87336 C -0.4821 0.87336 -0.87336 0.48209 -0.87336 0 C -0.87336 -0.4821 -0.48209 -0.87336 0 -0.87336 z" stroke-linecap="round" />
</g>
<g transform="matrix(2.265 0 0 5.0661874387 8 5.331017228)" id="_l470UwCz_atNcSayPjx9"  >
<path style="stroke: rgb(45,16,113); stroke-width: 0; stroke-dasharray: none; stroke-linecap: butt; stroke-dashoffset: 0; stroke-linejoin: miter; stroke-miterlimit: 4; fill: rgb(255,163,0); fill-rule: nonzero; opacity: 1;" vector-effect="non-scaling-stroke"  transform=" translate(0, 0)" d="M 0 -0.87336 C 0.4821 -0.87336 0.87336 -0.48209 0.87336 0 C 0.87336 0.4821 0.48209 0.87336 0 0.87336 C -0.4821 0.87336 -0.87336 0.48209 -0.87336 0 C -0.87336 -0.4821 -0.48209 -0.87336 0 -0.87336 z" stroke-linecap="round" />
</g>
</svg>