<?xml version="1.0" encoding="UTF-8" standalone="no" ?>
<!DOCTYPE svg PUBLIC "-//W3C//DTD SVG 1.1//EN" "http://www.w3.org/Graphics/SVG/1.1/DTD/svg11.dtd">
<svg xmlns="http://www.w3.org/2000/svg" xmlns:xlink="http://www.w3.org/1999/xlink" version="1.1" width="16" height="16" viewBox="0 0 16 16" xml:space="preserve">
<desc>Created with Fabric.js 5.3.0</desc>
<defs>
</defs>
<g transform="matrix(2.6406057603 0 0 2.6406057603 2.8536371082 8)" id="0NYlK_8hRwvaf8YceiMUC"  >
<path style="stroke: rgb(64,85,4); stroke-width: 0; stroke-dasharray: none; stroke-linecap: butt; stroke-dashoffset: 0; stroke-linejoin: miter; stroke-miterlimit: 4; fill: rgb(255,163,0); fill-rule: nonzero; opacity: 1;" vector-effect="non-scaling-stroke"  transform=" translate(0, 0)" d="M 0 -0.87336 C 0.4821 -0.87336 0.87336 -0.48209 0.87336 0 C 0.87336 0.4821 0.48209 0.87336 0 0.87336 C -0.4821 0.87336 -0.87336 0.48209 -0.87336 0 C -0.87336 -0.4821 -0.48209 -0.87336 0 -0.87336 z" stroke-linecap="round" />
</g>
<g transform="matrix(2.6406057603 0 0 2.6406057603 8.0012502354 7.9999935426)" id="RFKWPnnLj23KVH5ym0MAm"  >
<path style="stroke: rgb(64,85,4); stroke-width: 0; stroke-dasharray: none; stroke-linecap: butt; stroke-dashoffset: 0; stroke-linejoin: miter; stroke-miterlimit: 4; fill: rgb(255,163,0); fill-rule: nonzero; opacity: 1;" vector-effect="non-scaling-stroke"  transform=" translate(0, 0)" d="M 0 -0.87336 C 0.4821 -0.87336 0.87336 -0.48209 0.87336 0 C 0.87336 0.4821 0.48209 0.87336 0 0.87336 C -0.4821 0.87336 -0.87336 0.48209 -0.87336 0 C -0.87336 -0.4821 -0.48209 -0.87336 0 -0.87336 z" stroke-linecap="round" />
</g>
<g transform="matrix(2.6406057603 0 0 2.6406057603 13.1463693492 7.9999935426)" id="0sLiKMwPFW5G9naR9bxZF"  >
<path style="stroke: rgb(64,85,4); stroke-width: 0; stroke-dasharray: none; stroke-linecap: butt; stroke-dashoffset: 0; stroke-linejoin: miter; stroke-miterlimit: 4; fill: rgb(255,163,0); fill-rule: nonzero; opacity: 1;" vector-effect="non-scaling-stroke"  transform=" translate(0, 0)" d="M 0 -0.87336 C 0.4821 -0.87336 0.87336 -0.48209 0.87336 0 C 0.87336 0.4821 0.48209 0.87336 0 0.87336 C -0.4821 0.87336 -0.87336 0.48209 -0.87336 0 C -0.87336 -0.4821 -0.48209 -0.87336 0 -0.87336 z" stroke-linecap="round" />
</g>
</svg>